<svg width="1024" height="1024" viewBox="0 0 1024 1024" fill="none" xmlns="http://www.w3.org/2000/svg">
<path d="M549.932 595.36C549.932 600.701 548.347 605.921 545.379 610.361C542.41 614.8 538.19 618.259 533.255 620.3C528.319 622.34 522.889 622.87 517.652 621.822C512.415 620.774 507.606 618.196 503.835 614.414C500.064 610.632 497.5 605.816 496.468 600.576C495.436 595.336 495.981 589.908 498.036 584.978C500.09 580.048 503.562 575.839 508.01 572.883C512.458 569.927 517.683 568.358 523.024 568.373C526.564 568.373 530.07 569.072 533.34 570.429C536.609 571.786 539.579 573.775 542.079 576.282C544.579 578.789 546.559 581.765 547.907 585.038C549.254 588.312 549.943 591.82 549.932 595.36Z" fill="#3CA657"/>
<path d="M967.318 384.974C967.318 384.974 891.708 729.82 580.615 583.872C580.615 583.872 645.367 255.47 967.318 384.974Z" fill="url(#paint0_linear_226_93)" stroke="#B8F7D1" stroke-width="1.22517" stroke-miterlimit="10"/>
<path d="M824.361 214.951C824.361 214.951 901.544 559.325 557.957 558.538C557.957 558.538 477.784 233.598 824.361 214.951Z" fill="url(#paint1_linear_226_93)" stroke="#B8F7D1" stroke-width="1.22517" stroke-miterlimit="10"/>
<path d="M623.73 120.38C623.73 120.38 839.229 399.923 527.507 544.376C527.507 544.376 317.515 283.794 623.73 120.38Z" fill="url(#paint2_linear_226_93)" stroke="#B8F7D1" stroke-width="1.22517" stroke-miterlimit="10"/>
<path d="M401.545 120.616C401.545 120.616 714.998 282.85 493.52 545.478C493.52 545.556 193.048 398.035 401.545 120.616Z" fill="url(#paint3_linear_226_93)" stroke="#B8F7D1" stroke-width="1.22517" stroke-miterlimit="10"/>
<path d="M200.207 214.715C200.207 214.715 552.921 229.192 463.228 560.898C463.228 560.898 128.61 553.975 200.207 214.715Z" fill="url(#paint4_linear_226_93)" stroke="#B8F7D1" stroke-width="1.22517" stroke-miterlimit="10"/>
<path d="M57.5625 384.975C57.5625 384.975 383.368 249.177 442.219 587.65C442.219 587.65 136.162 723.055 57.5625 384.975Z" fill="url(#paint5_linear_226_93)" stroke="#B8F7D1" stroke-width="1.22517" stroke-miterlimit="10"/>
<path d="M159.686 301.261C159.702 304.909 158.633 308.479 156.616 311.519C154.599 314.558 151.725 316.931 148.358 318.334C144.99 319.737 141.282 320.108 137.703 319.4C134.125 318.692 130.837 316.937 128.258 314.358C125.678 311.778 123.923 308.491 123.215 304.912C122.507 301.333 122.879 297.625 124.282 294.258C125.685 290.891 128.057 288.016 131.096 285.999C134.136 283.982 137.707 282.913 141.354 282.929C146.216 282.929 150.879 284.86 154.317 288.298C157.755 291.736 159.686 296.399 159.686 301.261Z" fill="#3CA657"/>
<path d="M301.937 159.09C301.937 162.731 300.857 166.29 298.834 169.318C296.811 172.346 293.936 174.705 290.571 176.099C287.207 177.492 283.506 177.857 279.934 177.146C276.363 176.436 273.082 174.683 270.508 172.108C267.933 169.533 266.179 166.253 265.469 162.681C264.759 159.11 265.123 155.408 266.517 152.044C267.91 148.68 270.27 145.805 273.297 143.782C276.325 141.759 279.885 140.679 283.526 140.679C285.947 140.668 288.345 141.137 290.584 142.059C292.822 142.981 294.856 144.336 296.567 146.048C298.279 147.76 299.635 149.793 300.556 152.032C301.478 154.27 301.947 156.669 301.937 159.09Z" fill="#3CA657"/>
<path d="M740.804 184.188C740.804 187.829 739.724 191.389 737.701 194.417C735.678 197.444 732.803 199.804 729.439 201.197C726.075 202.591 722.373 202.955 718.801 202.245C715.23 201.535 711.95 199.781 709.375 197.206C706.8 194.632 705.047 191.351 704.336 187.78C703.626 184.209 703.99 180.507 705.384 177.143C706.777 173.779 709.137 170.903 712.165 168.88C715.192 166.857 718.752 165.778 722.393 165.778C724.814 165.767 727.212 166.236 729.451 167.158C731.689 168.079 733.723 169.435 735.435 171.147C737.146 172.858 738.502 174.892 739.423 177.13C740.345 179.369 740.814 181.768 740.804 184.188Z" fill="#3CA657"/>
<path d="M523.024 111.411C523.024 115.052 521.945 118.612 519.922 121.639C517.899 124.667 515.023 127.026 511.659 128.42C508.295 129.813 504.593 130.178 501.022 129.468C497.451 128.757 494.17 127.004 491.595 124.429C489.021 121.854 487.267 118.574 486.557 115.003C485.847 111.431 486.211 107.729 487.604 104.365C488.998 101.001 491.358 98.1258 494.385 96.1028C497.413 94.0798 500.972 93.0002 504.614 93.0002C507.034 92.9898 509.433 93.4588 511.672 94.3803C513.91 95.3018 515.944 96.6575 517.655 98.3692C519.367 100.081 520.723 102.115 521.644 104.353C522.566 106.592 523.035 108.99 523.024 111.411Z" fill="#3CA657"/>
<path d="M896.587 314.006C896.602 317.65 895.536 321.217 893.522 324.255C891.509 327.293 888.639 329.666 885.276 331.071C881.914 332.477 878.209 332.852 874.633 332.151C871.056 331.449 867.769 329.702 865.186 327.131C862.603 324.559 860.842 321.279 860.125 317.705C859.408 314.132 859.768 310.426 861.16 307.057C862.551 303.689 864.91 300.808 867.94 298.782C870.969 296.756 874.531 295.674 878.176 295.674C883.045 295.674 887.716 297.603 891.167 301.038C894.617 304.474 896.566 309.137 896.587 314.006Z" fill="#3CA657"/>
<path d="M66.1352 833.746V765.136H95.8334C101.976 765.136 107.268 766.149 111.712 768.175C116.155 770.135 119.585 772.977 122.003 776.702C124.421 780.426 125.63 784.87 125.63 790.032C125.63 795.129 124.421 799.539 122.003 803.264C119.585 806.988 116.155 809.863 111.712 811.889C107.268 813.849 101.976 814.829 95.8334 814.829H74.9564L82.0134 807.674V833.746H66.1352ZM82.0134 809.439L74.9564 801.892H94.9513C99.852 801.892 103.511 800.846 105.929 798.755C108.347 796.664 109.555 793.756 109.555 790.032C109.555 786.242 108.347 783.302 105.929 781.211C103.511 779.12 99.852 778.074 94.9513 778.074H74.9564L82.0134 770.527V809.439ZM171.172 792.776H204.203V805.126H171.172V792.776ZM172.349 821.004H209.692V833.746H156.568V765.136H208.418V777.878H172.349V821.004ZM232.911 833.746L263.492 765.136H279.174L309.852 833.746H293.19L268.098 773.173H274.371L249.182 833.746H232.911ZM248.201 819.044L252.416 806.988H287.701L292.014 819.044H248.201ZM368.451 834.922C363.158 834.922 358.225 834.073 353.651 832.374C349.142 830.61 345.222 828.127 341.889 824.925C338.557 821.723 335.943 817.966 334.048 813.653C332.218 809.341 331.304 804.603 331.304 799.441C331.304 794.279 332.218 789.542 334.048 785.229C335.943 780.917 338.557 777.159 341.889 773.958C345.287 770.756 349.24 768.305 353.749 766.607C358.257 764.842 363.191 763.96 368.549 763.96C374.495 763.96 379.853 765.006 384.623 767.097C389.459 769.122 393.51 772.128 396.777 776.114L386.583 785.523C384.231 782.844 381.617 780.851 378.742 779.544C375.867 778.172 372.731 777.486 369.333 777.486C366.131 777.486 363.191 778.009 360.512 779.054C357.833 780.1 355.513 781.603 353.553 783.563C351.592 785.523 350.057 787.843 348.946 790.522C347.901 793.201 347.378 796.174 347.378 799.441C347.378 802.708 347.901 805.681 348.946 808.36C350.057 811.04 351.592 813.359 353.553 815.319C355.513 817.28 357.833 818.783 360.512 819.828C363.191 820.874 366.131 821.396 369.333 821.396C372.731 821.396 375.867 820.743 378.742 819.436C381.617 818.064 384.231 816.006 386.583 813.261L396.777 822.671C393.51 826.656 389.459 829.695 384.623 831.786C379.853 833.877 374.462 834.922 368.451 834.922ZM441.706 792.776H474.737V805.126H441.706V792.776ZM442.883 821.004H480.226V833.746H427.102V765.136H478.952V777.878H442.883V821.004ZM559.823 833.746V765.136H589.521C595.664 765.136 600.956 766.149 605.4 768.175C609.843 770.135 613.273 772.977 615.691 776.702C618.109 780.426 619.318 784.87 619.318 790.032C619.318 795.129 618.109 799.539 615.691 803.264C613.273 806.988 609.843 809.863 605.4 811.889C600.956 813.849 595.664 814.829 589.521 814.829H568.644L575.701 807.674V833.746H559.823ZM575.701 809.439L568.644 801.892H588.639C593.54 801.892 597.199 800.846 599.617 798.755C602.035 796.664 603.243 793.756 603.243 790.032C603.243 786.242 602.035 783.302 599.617 781.211C597.199 779.12 593.54 778.074 588.639 778.074H568.644L575.701 770.527V809.439ZM680.356 834.922C670.62 834.922 663.007 832.211 657.519 826.787C652.03 821.364 649.285 813.621 649.285 803.558V765.136H665.164V802.97C665.164 809.504 666.503 814.209 669.182 817.084C671.861 819.959 675.619 821.396 680.454 821.396C685.289 821.396 689.046 819.959 691.725 817.084C694.405 814.209 695.744 809.504 695.744 802.97V765.136H711.426V803.558C711.426 813.621 708.682 821.364 703.193 826.787C697.704 832.211 690.092 834.922 680.356 834.922ZM746.72 833.746V765.136H762.598V820.808H797.001V833.746H746.72ZM847.732 834.922C842.243 834.922 836.983 834.203 831.951 832.766C826.92 831.263 822.869 829.335 819.798 826.983L825.188 815.025C828.129 817.116 831.592 818.848 835.578 820.22C839.629 821.527 843.713 822.18 847.83 822.18C850.966 822.18 853.482 821.886 855.377 821.298C857.337 820.645 858.775 819.763 859.689 818.652C860.604 817.541 861.062 816.267 861.062 814.829C861.062 813 860.343 811.562 858.905 810.517C857.468 809.406 855.573 808.524 853.22 807.87C850.868 807.152 848.254 806.498 845.379 805.91C842.57 805.257 839.727 804.473 836.852 803.558C834.042 802.643 831.461 801.467 829.109 800.029C826.757 798.592 824.829 796.697 823.326 794.344C821.889 791.992 821.17 788.986 821.17 785.327C821.17 781.407 822.215 777.845 824.306 774.644C826.463 771.377 829.664 768.795 833.912 766.901C838.224 764.94 843.615 763.96 850.084 763.96C854.397 763.96 858.644 764.483 862.826 765.528C867.008 766.508 870.7 768.011 873.901 770.037L869.001 782.093C865.799 780.263 862.597 778.924 859.395 778.074C856.193 777.159 853.057 776.702 849.986 776.702C846.915 776.702 844.399 777.061 842.439 777.78C840.479 778.499 839.074 779.446 838.224 780.623C837.375 781.733 836.95 783.04 836.95 784.543C836.95 786.307 837.669 787.745 839.106 788.856C840.544 789.901 842.439 790.751 844.791 791.404C847.144 792.057 849.725 792.711 852.534 793.364C855.409 794.018 858.252 794.769 861.062 795.619C863.937 796.468 866.55 797.612 868.903 799.049C871.255 800.487 873.15 802.382 874.587 804.734C876.09 807.086 876.842 810.059 876.842 813.653C876.842 817.508 875.764 821.037 873.607 824.239C871.451 827.441 868.217 830.022 863.904 831.982C859.657 833.942 854.266 834.922 847.732 834.922ZM921.898 792.776H954.929V805.126H921.898V792.776ZM923.074 821.004H960.418V833.746H907.294V765.136H959.144V777.878H923.074V821.004Z" fill="#165536"/>
<path d="M70.9384 923.966V889.661H83.7782C86.6859 889.661 89.1853 890.135 91.2763 891.082C93.3672 891.997 94.9681 893.336 96.0789 895.101C97.2224 896.832 97.7942 898.94 97.7942 901.423C97.7942 903.84 97.2224 905.931 96.0789 907.695C94.9681 909.427 93.3672 910.767 91.2763 911.714C89.1853 912.662 86.6859 913.135 83.7782 913.135H72.9476L74.5649 911.42V923.966H70.9384ZM74.5649 911.714L72.9476 909.95H83.6802C87.1107 909.95 89.708 909.215 91.4723 907.745C93.2692 906.242 94.1677 904.134 94.1677 901.423C94.1677 898.678 93.2692 896.555 91.4723 895.052C89.708 893.549 87.1107 892.797 83.6802 892.797H72.9476L74.5649 891.082V911.714ZM119.695 924.26C115.317 924.26 111.87 923.002 109.354 920.486C106.839 917.971 105.581 914.246 105.581 909.313V889.661H109.207V909.166C109.207 913.217 110.122 916.206 111.952 918.134C113.781 920.062 116.362 921.025 119.695 921.025C123.06 921.025 125.657 920.062 127.487 918.134C129.317 916.206 130.231 913.217 130.231 909.166V889.661H133.76V909.313C133.76 914.246 132.502 917.971 129.986 920.486C127.503 923.002 124.073 924.26 119.695 924.26ZM144.688 923.966V889.661H148.315V920.829H167.525V923.966H144.688ZM182.622 924.26C180.074 924.26 177.624 923.851 175.271 923.035C172.952 922.185 171.155 921.107 169.88 919.8L171.302 917.007C172.51 918.183 174.128 919.179 176.153 919.996C178.212 920.78 180.368 921.172 182.622 921.172C184.779 921.172 186.526 920.911 187.866 920.388C189.238 919.833 190.235 919.098 190.855 918.183C191.509 917.268 191.836 916.255 191.836 915.145C191.836 913.805 191.443 912.727 190.659 911.91C189.908 911.093 188.911 910.456 187.67 909.999C186.428 909.509 185.056 909.084 183.553 908.725C182.05 908.365 180.548 907.99 179.045 907.597C177.542 907.173 176.153 906.617 174.879 905.931C173.638 905.245 172.625 904.347 171.841 903.236C171.089 902.092 170.714 900.606 170.714 898.776C170.714 897.077 171.155 895.525 172.037 894.121C172.952 892.683 174.34 891.54 176.202 890.69C178.065 889.808 180.45 889.367 183.357 889.367C185.285 889.367 187.196 889.645 189.091 890.2C190.986 890.723 192.62 891.458 193.992 892.405L192.767 895.297C191.296 894.317 189.728 893.598 188.062 893.14C186.428 892.683 184.844 892.454 183.308 892.454C181.25 892.454 179.551 892.732 178.212 893.287C176.872 893.843 175.876 894.594 175.222 895.542C174.601 896.457 174.291 897.502 174.291 898.678C174.291 900.018 174.667 901.096 175.418 901.913C176.202 902.729 177.215 903.367 178.457 903.824C179.731 904.281 181.119 904.69 182.622 905.049C184.125 905.409 185.612 905.801 187.082 906.225C188.585 906.65 189.957 907.205 191.198 907.892C192.473 908.545 193.485 909.427 194.237 910.538C195.021 911.649 195.413 913.103 195.413 914.9C195.413 916.566 194.956 918.118 194.041 919.555C193.126 920.96 191.721 922.104 189.826 922.986C187.964 923.835 185.563 924.26 182.622 924.26ZM206.549 905H224.682V908.088H206.549V905ZM206.941 920.829H227.573V923.966H203.315V889.661H226.838V892.797H206.941V920.829ZM257.108 923.966V911.224L257.941 913.478L243.386 889.661H247.257L260.048 910.587H257.99L270.781 889.661H274.407L259.852 913.478L260.685 911.224V923.966H257.108ZM293.544 924.26C290.963 924.26 288.562 923.835 286.34 922.986C284.151 922.104 282.24 920.878 280.606 919.31C279.005 917.709 277.748 915.863 276.833 913.772C275.951 911.649 275.51 909.329 275.51 906.813C275.51 904.298 275.951 901.994 276.833 899.903C277.748 897.78 279.005 895.934 280.606 894.366C282.24 892.765 284.151 891.54 286.34 890.69C288.529 889.808 290.93 889.367 293.544 889.367C296.125 889.367 298.51 889.808 300.699 890.69C302.888 891.54 304.783 892.748 306.384 894.317C308.018 895.885 309.275 897.731 310.158 899.854C311.072 901.978 311.53 904.298 311.53 906.813C311.53 909.329 311.072 911.649 310.158 913.772C309.275 915.896 308.018 917.742 306.384 919.31C304.783 920.878 302.888 922.104 300.699 922.986C298.51 923.835 296.125 924.26 293.544 924.26ZM293.544 921.025C295.602 921.025 297.497 920.682 299.229 919.996C300.993 919.277 302.512 918.281 303.787 917.007C305.094 915.7 306.106 914.197 306.825 912.498C307.544 910.767 307.903 908.872 307.903 906.813C307.903 904.755 307.544 902.876 306.825 901.178C306.106 899.446 305.094 897.943 303.787 896.669C302.512 895.362 300.993 894.366 299.229 893.679C297.497 892.961 295.602 892.601 293.544 892.601C291.486 892.601 289.575 892.961 287.81 893.679C286.046 894.366 284.511 895.362 283.204 896.669C281.93 897.943 280.917 899.446 280.165 901.178C279.447 902.876 279.087 904.755 279.087 906.813C279.087 908.839 279.447 910.718 280.165 912.449C280.917 914.181 281.93 915.7 283.204 917.007C284.511 918.281 286.046 919.277 287.81 919.996C289.575 920.682 291.486 921.025 293.544 921.025ZM333.478 924.26C329.1 924.26 325.654 923.002 323.138 920.486C320.622 917.971 319.364 914.246 319.364 909.313V889.661H322.991V909.166C322.991 913.217 323.906 916.206 325.735 918.134C327.565 920.062 330.146 921.025 333.478 921.025C336.844 921.025 339.441 920.062 341.271 918.134C343.1 916.206 344.015 913.217 344.015 909.166V889.661H347.543V909.313C347.543 914.246 346.286 917.971 343.77 920.486C341.287 923.002 337.856 924.26 333.478 924.26ZM358.472 923.966V889.661H371.311C374.219 889.661 376.719 890.135 378.809 891.082C380.9 891.997 382.501 893.336 383.612 895.101C384.756 896.832 385.327 898.94 385.327 901.423C385.327 903.84 384.756 905.931 383.612 907.695C382.501 909.427 380.9 910.767 378.809 911.714C376.719 912.629 374.219 913.086 371.311 913.086H360.481L362.098 911.42V923.966H358.472ZM381.897 923.966L373.076 911.518H376.996L385.866 923.966H381.897ZM362.098 911.714L360.481 909.999H371.213C374.644 909.999 377.241 909.247 379.005 907.745C380.802 906.242 381.701 904.134 381.701 901.423C381.701 898.678 380.802 896.555 379.005 895.052C377.241 893.549 374.644 892.797 371.213 892.797H360.481L362.098 891.082V911.714ZM414.505 923.966L402.939 889.661H406.664L417.494 921.957H415.632L426.806 889.661H430.138L441.165 921.957H439.4L450.329 889.661H453.809L442.243 923.966H438.42L427.884 893.336H428.864L418.278 923.966H414.505ZM453.916 923.966L469.598 889.661H473.176L488.858 923.966H485.036L470.628 891.768H472.098L457.69 923.966H453.916ZM460.091 914.802L461.169 911.861H481.115L482.193 914.802H460.091ZM500.707 923.966V911.224L501.54 913.478L486.985 889.661H490.857L503.648 910.587H501.589L514.38 889.661H518.007L503.451 913.478L504.285 911.224V923.966H500.707ZM543.122 923.966V892.797H531.066V889.661H558.804V892.797H546.748V923.966H543.122ZM579.115 924.26C576.534 924.26 574.133 923.835 571.911 922.986C569.722 922.104 567.811 920.878 566.177 919.31C564.576 917.709 563.319 915.863 562.404 913.772C561.522 911.649 561.081 909.329 561.081 906.813C561.081 904.298 561.522 901.994 562.404 899.903C563.319 897.78 564.576 895.934 566.177 894.366C567.811 892.765 569.722 891.54 571.911 890.69C574.1 889.808 576.502 889.367 579.115 889.367C581.696 889.367 584.081 889.808 586.27 890.69C588.459 891.54 590.354 892.748 591.955 894.317C593.589 895.885 594.846 897.731 595.729 899.854C596.643 901.978 597.101 904.298 597.101 906.813C597.101 909.329 596.643 911.649 595.729 913.772C594.846 915.896 593.589 917.742 591.955 919.31C590.354 920.878 588.459 922.104 586.27 922.986C584.081 923.835 581.696 924.26 579.115 924.26ZM579.115 921.025C581.174 921.025 583.068 920.682 584.8 919.996C586.564 919.277 588.084 918.281 589.358 917.007C590.665 915.7 591.677 914.197 592.396 912.498C593.115 910.767 593.474 908.872 593.474 906.813C593.474 904.755 593.115 902.876 592.396 901.178C591.677 899.446 590.665 897.943 589.358 896.669C588.084 895.362 586.564 894.366 584.8 893.679C583.068 892.961 581.174 892.601 579.115 892.601C577.057 892.601 575.146 892.961 573.381 893.679C571.617 894.366 570.082 895.362 568.775 896.669C567.501 897.943 566.488 899.446 565.736 901.178C565.018 902.876 564.658 904.755 564.658 906.813C564.658 908.839 565.018 910.718 565.736 912.449C566.488 914.181 567.501 915.7 568.775 917.007C570.082 918.281 571.617 919.277 573.381 919.996C575.146 920.682 577.057 921.025 579.115 921.025ZM618.055 923.966V889.661H621.682V923.966H618.055ZM632.844 923.966V889.661H635.833L659.504 919.457H657.935V889.661H661.513V923.966H658.523L634.902 894.17H636.47V923.966H632.844ZM672.71 923.966V889.661H675.699L699.37 919.457H697.801V889.661H701.379V923.966H698.389L674.768 894.17H676.336V923.966H672.71ZM715.81 905H733.943V908.088H715.81V905ZM716.202 920.829H736.834V923.966H712.576V889.661H736.099V892.797H716.202V920.829ZM745.359 923.966V889.661H758.199C761.106 889.661 763.606 890.135 765.697 891.082C767.788 891.997 769.389 893.336 770.499 895.101C771.643 896.832 772.215 898.94 772.215 901.423C772.215 903.84 771.643 905.931 770.499 907.695C769.389 909.427 767.788 910.767 765.697 911.714C763.606 912.629 761.106 913.086 758.199 913.086H747.368L748.985 911.42V923.966H745.359ZM768.784 923.966L759.963 911.518H763.883L772.754 923.966H768.784ZM748.985 911.714L747.368 909.999H758.101C761.531 909.999 764.129 909.247 765.893 907.745C767.69 906.242 768.588 904.134 768.588 901.423C768.588 898.678 767.69 896.555 765.893 895.052C764.129 893.549 761.531 892.797 758.101 892.797H747.368L748.985 891.082V911.714ZM793.6 923.966V889.661H806.44C809.348 889.661 811.847 890.135 813.938 891.082C816.029 891.997 817.63 893.336 818.741 895.101C819.884 896.832 820.456 898.94 820.456 901.423C820.456 903.84 819.884 905.931 818.741 907.695C817.63 909.427 816.029 910.767 813.938 911.714C811.847 912.662 809.348 913.135 806.44 913.135H795.609L797.227 911.42V923.966H793.6ZM797.227 911.714L795.609 909.95H806.342C809.772 909.95 812.37 909.215 814.134 907.745C815.931 906.242 816.829 904.134 816.829 901.423C816.829 898.678 815.931 896.555 814.134 895.052C812.37 893.549 809.772 892.797 806.342 892.797H795.609L797.227 891.082V911.714ZM831.532 905H849.664V908.088H831.532V905ZM831.924 920.829H852.556V923.966H828.297V889.661H851.821V892.797H831.924V920.829ZM855.592 923.966L871.274 889.661H874.851L890.534 923.966H886.711L872.303 891.768H873.773L859.365 923.966H855.592ZM861.766 914.802L862.845 911.861H882.79L883.869 914.802H861.766ZM910.628 924.26C908.047 924.26 905.662 923.835 903.473 922.986C901.284 922.104 899.389 920.878 897.788 919.31C896.187 917.742 894.929 915.896 894.015 913.772C893.132 911.649 892.691 909.329 892.691 906.813C892.691 904.298 893.132 901.978 894.015 899.854C894.929 897.731 896.187 895.885 897.788 894.317C899.422 892.748 901.333 891.54 903.522 890.69C905.711 889.808 908.096 889.367 910.677 889.367C913.16 889.367 915.496 889.792 917.685 890.641C919.874 891.458 921.72 892.699 923.223 894.366L920.919 896.669C919.515 895.231 917.963 894.202 916.264 893.581C914.565 892.928 912.735 892.601 910.775 892.601C908.717 892.601 906.805 892.961 905.041 893.679C903.277 894.366 901.741 895.362 900.435 896.669C899.128 897.943 898.099 899.446 897.347 901.178C896.628 902.876 896.269 904.755 896.269 906.813C896.269 908.872 896.628 910.767 897.347 912.498C898.099 914.197 899.128 915.7 900.435 917.007C901.741 918.281 903.277 919.277 905.041 919.996C906.805 920.682 908.717 921.025 910.775 921.025C912.735 921.025 914.565 920.699 916.264 920.045C917.963 919.392 919.515 918.346 920.919 916.909L923.223 919.212C921.72 920.878 919.874 922.136 917.685 922.986C915.496 923.835 913.144 924.26 910.628 924.26ZM934.188 905H952.321V908.088H934.188V905ZM934.58 920.829H955.212V923.966H930.954V889.661H954.477V892.797H934.58V920.829Z" fill="#165536"/>
<line x1="62.9004" y1="863.101" x2="960.954" y2="863.101" stroke="#165536" stroke-width="1.22517"/>
<defs>
<linearGradient id="paint0_linear_226_93" x1="773.967" y1="354.736" x2="773.967" y2="619.881" gradientUnits="userSpaceOnUse">
<stop stop-color="#3E8550"/>
<stop offset="1" stop-color="#3CA657"/>
</linearGradient>
<linearGradient id="paint1_linear_226_93" x1="690.857" y1="214.951" x2="690.857" y2="558.539" gradientUnits="userSpaceOnUse">
<stop stop-color="#95E18F"/>
<stop offset="1" stop-color="#2C6827"/>
</linearGradient>
<linearGradient id="paint2_linear_226_93" x1="576.785" y1="120.38" x2="576.785" y2="544.376" gradientUnits="userSpaceOnUse">
<stop stop-color="#3E8550"/>
<stop offset="1" stop-color="#3CA657"/>
</linearGradient>
<linearGradient id="paint3_linear_226_93" x1="450.303" y1="120.616" x2="450.303" y2="545.478" gradientUnits="userSpaceOnUse">
<stop stop-color="#95E18F"/>
<stop offset="1" stop-color="#2C6827"/>
</linearGradient>
<linearGradient id="paint4_linear_226_93" x1="333.998" y1="214.715" x2="333.998" y2="560.898" gradientUnits="userSpaceOnUse">
<stop stop-color="#3E8550"/>
<stop offset="1" stop-color="#3CA657"/>
</linearGradient>
<linearGradient id="paint5_linear_226_93" x1="249.891" y1="358.061" x2="249.891" y2="614.434" gradientUnits="userSpaceOnUse">
<stop stop-color="#95E18F"/>
<stop offset="1" stop-color="#2C6827"/>
</linearGradient>
</defs>
</svg>
