<svg width="1080" height="1280" viewBox="0 0 1080 1280" fill="none" xmlns="http://www.w3.org/2000/svg">
<rect width="1080" height="1280" fill="#AEE8C0"/>
<path fill-rule="evenodd" clip-rule="evenodd" d="M723.333 506.667C723.333 479.053 700.948 456.667 673.333 456.667H406.666C379.052 456.667 356.666 479.053 356.666 506.667V773.334C356.666 800.949 379.052 823.334 406.666 823.334H673.333C700.948 823.334 723.333 800.949 723.333 773.334V506.667ZM689.999 506.667C689.999 497.462 682.538 490 673.333 490H406.666C397.461 490 389.999 497.462 389.999 506.667V773.334C389.999 782.539 397.461 790 406.666 790H673.333C682.538 790 689.999 782.539 689.999 773.334V506.667Z" fill="#E6F9EC"/>
<path d="M420.111 732.018L492.036 600.157C498.353 588.576 514.982 588.576 521.299 600.157L574.109 696.976L592.197 665.323C598.596 654.126 614.739 654.126 621.137 665.323L659.086 731.731C665.434 742.841 657.411 756.666 644.614 756.666H434.743C422.092 756.666 414.053 743.125 420.111 732.018Z" fill="#E6F9EC"/>
<path d="M640.001 573.333C640.001 591.743 625.077 606.667 606.667 606.667C588.257 606.667 573.334 591.743 573.334 573.333C573.334 554.924 588.257 540 606.667 540C625.077 540 640.001 554.924 640.001 573.333Z" fill="#E6F9EC"/>
</svg>
