<svg width="919" height="531" viewBox="0 0 919 531" fill="none" xmlns="http://www.w3.org/2000/svg">
<path d="M496.932 502.36C496.932 507.701 495.347 512.921 492.379 517.361C489.41 521.8 485.19 525.259 480.255 527.3C475.319 529.34 469.889 529.87 464.652 528.822C459.415 527.774 454.606 525.196 450.835 521.414C447.064 517.632 444.5 512.816 443.468 507.576C442.436 502.336 442.981 496.908 445.036 491.978C447.09 487.048 450.562 482.839 455.01 479.883C459.458 476.927 464.683 475.358 470.024 475.373C473.564 475.373 477.07 476.072 480.34 477.429C483.609 478.786 486.579 480.775 489.079 483.282C491.579 485.789 493.559 488.765 494.907 492.038C496.254 495.312 496.943 498.82 496.932 502.36Z" fill="#3CA657"/>
<path d="M914.318 291.974C914.318 291.974 838.708 636.82 527.615 490.872C527.615 490.872 592.367 162.47 914.318 291.974Z" fill="url(#paint0_linear_226_94)" stroke="#B8F7D1" stroke-width="1.22517" stroke-miterlimit="10"/>
<path d="M771.361 121.951C771.361 121.951 848.544 466.325 504.957 465.538C504.957 465.538 424.784 140.598 771.361 121.951Z" fill="url(#paint1_linear_226_94)" stroke="#B8F7D1" stroke-width="1.22517" stroke-miterlimit="10"/>
<path d="M570.73 27.3799C570.73 27.3799 786.229 306.923 474.507 451.376C474.507 451.376 264.515 190.794 570.73 27.3799Z" fill="url(#paint2_linear_226_94)" stroke="#B8F7D1" stroke-width="1.22517" stroke-miterlimit="10"/>
<path d="M348.545 27.6162C348.545 27.6162 661.998 189.85 440.52 452.478C440.52 452.556 140.048 305.035 348.545 27.6162Z" fill="url(#paint3_linear_226_94)" stroke="#B8F7D1" stroke-width="1.22517" stroke-miterlimit="10"/>
<path d="M147.207 121.715C147.207 121.715 499.921 136.192 410.228 467.898C410.228 467.898 75.6098 460.975 147.207 121.715Z" fill="url(#paint4_linear_226_94)" stroke="#B8F7D1" stroke-width="1.22517" stroke-miterlimit="10"/>
<path d="M4.5625 291.975C4.5625 291.975 330.368 156.177 389.219 494.65C389.219 494.65 83.1619 630.055 4.5625 291.975Z" fill="url(#paint5_linear_226_94)" stroke="#B8F7D1" stroke-width="1.22517" stroke-miterlimit="10"/>
<path d="M106.686 208.261C106.702 211.909 105.633 215.479 103.616 218.519C101.599 221.558 98.725 223.931 95.3577 225.334C91.9904 226.737 88.2821 227.108 84.7034 226.4C81.1248 225.692 77.8372 223.937 75.2577 221.358C72.6781 218.778 70.923 215.491 70.2152 211.912C69.5073 208.333 69.8785 204.625 71.2817 201.258C72.6849 197.891 75.0568 195.016 78.0964 192.999C81.1361 190.982 84.7066 189.913 88.3545 189.929C93.2164 189.929 97.8792 191.86 101.317 195.298C104.755 198.736 106.686 203.399 106.686 208.261Z" fill="#3CA657"/>
<path d="M248.937 66.0895C248.937 69.7308 247.857 73.2904 245.834 76.3181C243.811 79.3457 240.936 81.7054 237.571 83.0989C234.207 84.4924 230.506 84.8569 226.934 84.1465C223.363 83.4361 220.082 81.6826 217.508 79.1079C214.933 76.5331 213.179 73.2526 212.469 69.6813C211.759 66.11 212.123 62.4082 213.517 59.0441C214.91 55.68 217.27 52.8045 220.297 50.7815C223.325 48.7585 226.885 47.6789 230.526 47.6789C232.947 47.6685 235.345 48.1375 237.584 49.059C239.822 49.9805 241.856 51.3362 243.567 53.0479C245.279 54.7596 246.635 56.7934 247.556 59.0318C248.478 61.2702 248.947 63.6689 248.937 66.0895Z" fill="#3CA657"/>
<path d="M687.804 91.1882C687.804 94.8294 686.724 98.3891 684.701 101.417C682.678 104.444 679.803 106.804 676.439 108.197C673.075 109.591 669.373 109.955 665.801 109.245C662.23 108.535 658.95 106.781 656.375 104.206C653.8 101.632 652.047 98.3512 651.336 94.7799C650.626 91.2086 650.99 87.5068 652.384 84.1427C653.777 80.7786 656.137 77.9032 659.165 75.8802C662.192 73.8572 665.752 72.7775 669.393 72.7775C671.814 72.7671 674.212 73.2361 676.451 74.1576C678.689 75.0792 680.723 76.4349 682.435 78.1465C684.146 79.8582 685.502 81.8921 686.423 84.1305C687.345 86.3689 687.814 88.7675 687.804 91.1882Z" fill="#3CA657"/>
<path d="M470.024 18.4108C470.024 22.0521 468.945 25.6117 466.922 28.6393C464.899 31.667 462.023 34.0265 458.659 35.4199C455.295 36.8134 451.593 37.1781 448.022 36.4678C444.451 35.7574 441.17 34.0039 438.595 31.4291C436.021 28.8544 434.267 25.5739 433.557 22.0026C432.847 18.4312 433.211 14.7295 434.604 11.3654C435.998 8.00126 438.358 5.12581 441.385 3.10282C444.413 1.07983 447.972 0.000169613 451.614 0.000169613C454.034 -0.0102419 456.433 0.458766 458.672 1.3803C460.91 2.30184 462.944 3.65752 464.655 5.36919C466.367 7.08085 467.723 9.11473 468.644 11.3531C469.566 13.5915 470.035 15.9902 470.024 18.4108Z" fill="#3CA657"/>
<path d="M843.587 221.006C843.602 224.65 842.536 228.217 840.522 231.255C838.509 234.293 835.639 236.666 832.276 238.071C828.914 239.477 825.209 239.852 821.633 239.151C818.056 238.449 814.769 236.702 812.186 234.131C809.603 231.559 807.842 228.279 807.125 224.705C806.408 221.132 806.768 217.426 808.16 214.057C809.551 210.689 811.91 207.808 814.94 205.782C817.969 203.756 821.531 202.674 825.176 202.674C830.045 202.674 834.716 204.603 838.167 208.038C841.617 211.474 843.566 216.137 843.587 221.006Z" fill="#3CA657"/>
<defs>
<linearGradient id="paint0_linear_226_94" x1="720.967" y1="261.736" x2="720.967" y2="526.881" gradientUnits="userSpaceOnUse">
<stop stop-color="#3E8550"/>
<stop offset="1" stop-color="#3CA657"/>
</linearGradient>
<linearGradient id="paint1_linear_226_94" x1="637.857" y1="121.951" x2="637.857" y2="465.539" gradientUnits="userSpaceOnUse">
<stop stop-color="#95E18F"/>
<stop offset="1" stop-color="#2C6827"/>
</linearGradient>
<linearGradient id="paint2_linear_226_94" x1="523.785" y1="27.3799" x2="523.785" y2="451.376" gradientUnits="userSpaceOnUse">
<stop stop-color="#3E8550"/>
<stop offset="1" stop-color="#3CA657"/>
</linearGradient>
<linearGradient id="paint3_linear_226_94" x1="397.303" y1="27.6162" x2="397.303" y2="452.478" gradientUnits="userSpaceOnUse">
<stop stop-color="#95E18F"/>
<stop offset="1" stop-color="#2C6827"/>
</linearGradient>
<linearGradient id="paint4_linear_226_94" x1="280.998" y1="121.715" x2="280.998" y2="467.898" gradientUnits="userSpaceOnUse">
<stop stop-color="#3E8550"/>
<stop offset="1" stop-color="#3CA657"/>
</linearGradient>
<linearGradient id="paint5_linear_226_94" x1="196.891" y1="265.061" x2="196.891" y2="521.434" gradientUnits="userSpaceOnUse">
<stop stop-color="#95E18F"/>
<stop offset="1" stop-color="#2C6827"/>
</linearGradient>
</defs>
</svg>
