<svg width="128" height="128" viewBox="0 0 128 128" fill="none" xmlns="http://www.w3.org/2000/svg">
<path d="M88.6446 49.9923C95.8219 49.9923 101.641 44.1738 101.641 36.9962C101.641 29.8186 95.8219 24 88.6446 24C81.4668 24 75.6484 29.8186 75.6484 36.9962C75.6484 44.1738 81.4668 49.9923 88.6446 49.9923Z" fill="#292D32"/>
<path d="M39.9961 49.9923C47.1737 49.9923 52.9923 44.1738 52.9923 36.9962C52.9923 29.8186 47.1737 24 39.9961 24C32.8186 24 27 29.8186 27 36.9962C27 44.1738 32.8186 49.9923 39.9961 49.9923Z" fill="#292D32"/>
<path d="M88.6446 104C95.8219 104 101.641 98.1817 101.641 91.004C101.641 83.8262 95.8219 78.0078 88.6446 78.0078C81.4668 78.0078 75.6484 83.8262 75.6484 91.004C75.6484 98.1817 81.4668 104 88.6446 104Z" fill="#292D32"/>
<path d="M39.9961 104C47.1737 104 52.9923 98.1817 52.9923 91.004C52.9923 83.8262 47.1737 78.0078 39.9961 78.0078C32.8186 78.0078 27 83.8262 27 91.004C27 98.1817 32.8186 104 39.9961 104Z" fill="#292D32"/>
</svg>
