<svg width="128" height="128" viewBox="0 0 128 128" fill="none" xmlns="http://www.w3.org/2000/svg">
<path d="M64.0003 0C28.672 0 0 28.672 0 64C0 99.328 28.672 128 64.0003 128C99.3283 128 128 99.328 128 64C128 28.672 99.3923 0 64.0003 0ZM83.2003 78.272L64.6397 88.96C62.3357 90.304 59.7763 90.944 57.2797 90.944C54.7203 90.944 52.2237 90.304 49.92 88.96C45.312 86.272 42.56 81.536 42.56 76.16V54.72C42.56 49.408 45.312 44.608 49.92 41.92C54.5283 39.232 60.0317 39.232 64.7037 41.92L83.2637 52.608C87.8717 55.296 90.6237 60.032 90.6237 65.408C90.6237 70.784 87.8717 75.584 83.2003 78.272Z" fill="white"/>
</svg>
