<svg width="128" height="128" viewBox="0 0 128 128" fill="none" xmlns="http://www.w3.org/2000/svg">
<path d="M64.1563 24C53.6763 24 45.1562 32.52 45.1562 43.0001C45.1562 53.2801 53.1963 61.6002 63.6763 61.9602C63.9963 61.9202 64.3163 61.9202 64.5563 61.9602H64.7563H64.8363C75.0764 61.6002 83.1164 53.2801 83.1564 43.0001C83.1564 32.52 74.6364 24 64.1563 24Z" fill="#292D32"/>
<path d="M84.4801 72.5996C73.32 65.1595 55.1201 65.1595 43.88 72.5996C38.8 75.9996 36 80.5996 36 85.5196C36 90.4396 38.8 94.9997 43.84 98.3597C49.4401 102.12 56.7999 104 64.16 104C71.52 104 78.88 102.12 84.4801 98.3597C89.5201 94.9597 92.3201 90.3996 92.3201 85.4396C92.2801 80.5196 89.5201 75.9596 84.4801 72.5996Z" fill="#292D32"/>
</svg>
